<svg xmlns="http://www.w3.org/2000/svg" xmlns:xlink="http://www.w3.org/1999/xlink" width="500" zoomAndPan="magnify" viewBox="0 0 375 374.999991" height="500" preserveAspectRatio="xMidYMid meet" version="1.0"><defs><clipPath id="396794e2c9"><path d="M 33 4.179688 L 170 4.179688 L 170 190 L 33 190 Z M 33 4.179688 " clip-rule="nonzero"/></clipPath><clipPath id="27bc51de19"><path d="M 206 4.179688 L 343 4.179688 L 343 200 L 206 200 Z M 206 4.179688 " clip-rule="nonzero"/></clipPath><clipPath id="8238e71743"><path d="M 5.105469 105 L 91 105 L 91 217 L 5.105469 217 Z M 5.105469 105 " clip-rule="nonzero"/></clipPath><clipPath id="fe7e94e391"><path d="M 262 105 L 369.605469 105 L 369.605469 219 L 262 219 Z M 262 105 " clip-rule="nonzero"/></clipPath><clipPath id="cec9f91583"><path d="M 5.105469 185 L 81 185 L 81 244 L 5.105469 244 Z M 5.105469 185 " clip-rule="nonzero"/></clipPath><clipPath id="3eb5056f1d"><path d="M 271 185 L 369.605469 185 L 369.605469 245 L 271 245 Z M 271 185 " clip-rule="nonzero"/></clipPath><clipPath id="50ffee1912"><path d="M 0 0 L 28.144531 0 L 28.144531 19.648438 L 0 19.648438 Z M 0 0 " clip-rule="nonzero"/></clipPath></defs><rect x="-37.5" width="450" fill="#ffffff" y="-37.499999" height="449.999989" fill-opacity="1"/><rect x="-37.5" width="450" fill="#1f2951" y="-37.499999" height="449.999989" fill-opacity="1"/><g clip-path="url(#396794e2c9)"><path fill="#ffffff" d="M 34.929688 89.316406 C 63.589844 42.421875 114.859375 10.1875 169.628906 4.867188 C 141.769531 17.410156 115.441406 37.027344 102.386719 65.394531 C 86.050781 98.648438 90.136719 140.21875 112.160156 169.898438 C 105.742188 175.953125 100.199219 182.808594 95.09375 189.953125 C 64.246094 173.328125 38.066406 143.644531 34.273438 107.839844 C 34.054688 101.785156 32.671875 95.148438 34.929688 89.316406 Z M 34.929688 89.316406 " fill-opacity="1" fill-rule="nonzero"/></g><g clip-path="url(#27bc51de19)"><path fill="#ffffff" d="M 206.238281 4.5 C 260.859375 9.824219 311.835938 41.984375 340.714844 88.585938 C 342.683594 91.941406 341.882812 96.023438 342.101562 99.742188 C 342.320312 120.527344 333.933594 140.730469 320.730469 156.480469 C 304.542969 175.804688 282.808594 189.734375 259.910156 199.726562 C 256.773438 194.914062 253.054688 190.539062 249.992188 185.722656 C 269.246094 166.761719 282.519531 140.875 283.320312 113.601562 C 284.558594 86.691406 274.570312 59.632812 256.554688 39.722656 C 242.847656 24.191406 224.832031 13.179688 206.238281 4.5 Z M 206.238281 4.5 " fill-opacity="1" fill-rule="nonzero"/></g><g clip-path="url(#8238e71743)"><path fill="#ffffff" d="M 24.648438 105.066406 C 26.472656 116.953125 29.097656 128.914062 34.492188 139.78125 C 45.871094 164.210938 67.164062 182.734375 90.648438 195.207031 C 87.074219 201.839844 84.375 208.914062 82.261719 216.136719 C 53.671875 209.0625 27.347656 194.402344 5.6875 174.492188 C 7.144531 150.355469 13.855469 126.652344 24.648438 105.066406 Z M 24.648438 105.066406 " fill-opacity="1" fill-rule="nonzero"/></g><g clip-path="url(#fe7e94e391)"><path fill="#ffffff" d="M 350.121094 105.140625 C 361.351562 126.582031 367.40625 150.355469 369.375 174.421875 C 341.882812 199.289062 306.730469 217.8125 269.027344 218.613281 C 267.128906 213.875 265.015625 209.132812 262.828125 204.539062 C 290.46875 194.621094 316.574219 177.628906 333.128906 152.90625 C 342.828125 138.757812 348.152344 122.058594 350.121094 105.140625 Z M 350.121094 105.140625 " fill-opacity="1" fill-rule="nonzero"/></g><g clip-path="url(#cec9f91583)"><path fill="#ffffff" d="M 5.25 185.503906 C 26.910156 203.882812 52.578125 218.25 80.582031 224.230469 C 79.636719 230.574219 78.980469 236.992188 78.90625 243.410156 C 56.078125 242.023438 33.328125 238.816406 11.082031 233.566406 C 7.144531 217.886719 5.105469 201.695312 5.25 185.503906 Z M 5.25 185.503906 " fill-opacity="1" fill-rule="nonzero"/></g><g clip-path="url(#3eb5056f1d)"><path fill="#ffffff" d="M 271.796875 227.292969 C 308.1875 225.46875 342.464844 208.769531 369.886719 185.359375 C 369.738281 201.550781 367.84375 217.738281 363.90625 233.492188 C 334.734375 240.710938 304.6875 243.484375 274.714844 244.429688 C 273.914062 238.742188 272.820312 232.980469 271.796875 227.292969 Z M 271.796875 227.292969 " fill-opacity="1" fill-rule="nonzero"/></g><path fill="#ffffff" d="M 145.5625 205.78125 C 146.289062 203.371094 147.019531 200.964844 147.75 198.558594 C 157.8125 203.664062 168.605469 206.875 179.398438 210.007812 C 168.023438 209.644531 156.644531 208.40625 145.5625 205.78125 Z M 145.5625 205.78125 " fill-opacity="1" fill-rule="nonzero"/><path fill="#ffffff" d="M 122.441406 220.511719 C 129.445312 217.8125 136.882812 216.0625 143.226562 211.976562 C 155.84375 214.75 168.753906 215.769531 181.660156 216.207031 C 162.480469 222.042969 142.207031 221.3125 122.441406 220.511719 Z M 122.441406 220.511719 " fill-opacity="1" fill-rule="nonzero"/><path fill="#ffffff" d="M 114.785156 227.949219 C 136.589844 229.480469 158.542969 227.804688 179.984375 223.574219 C 153.875 236.992188 124.195312 242.753906 94.949219 243.410156 C 98.816406 235.898438 104.941406 225.835938 114.785156 227.949219 Z M 114.785156 227.949219 " fill-opacity="1" fill-rule="nonzero"/><path fill="#ffffff" d="M 14.875 246.035156 C 65.050781 256.390625 117.921875 254.496094 166.636719 238.378906 C 129.664062 267.988281 83.5 283.082031 37.191406 290.230469 C 27.710938 276.589844 20.34375 261.640625 14.875 246.035156 Z M 14.875 246.035156 " fill-opacity="1" fill-rule="nonzero"/><path fill="#ffffff" d="M 331.015625 297.960938 C 325.835938 297.59375 319.636719 296.5 313.074219 294.96875 C 312.34375 294.824219 311.617188 294.605469 310.960938 294.457031 C 303.375 292.636719 295.425781 290.300781 288.207031 288.042969 C 288.132812 288.042969 288.132812 288.042969 288.0625 287.96875 C 276.539062 284.320312 266.839844 280.820312 263.265625 279.507812 C 263.046875 279.4375 262.828125 279.363281 262.609375 279.289062 C 262.027344 279.070312 261.808594 279 261.808594 279 C 258.742188 311.523438 243.867188 342.300781 221.40625 365.78125 C 265.015625 357.976562 305.050781 333.109375 332.035156 298.03125 C 331.742188 298.03125 331.378906 297.960938 331.015625 297.960938 Z M 331.015625 297.960938 " fill-opacity="1" fill-rule="nonzero"/><path fill="#ffffff" d="M 304.105469 252.089844 C 303.519531 252.089844 302.9375 252.089844 302.355469 252.089844 C 299.730469 252.089844 297.03125 252.089844 294.40625 252.015625 C 292.289062 251.941406 290.320312 251.941406 288.5 251.871094 C 285.726562 251.796875 282.957031 251.652344 280.183594 251.503906 C 279.238281 251.433594 278.507812 251.359375 277.851562 251.359375 C 277.558594 251.359375 277.265625 251.285156 277.046875 251.285156 C 276.320312 251.214844 275.882812 251.214844 275.882812 251.214844 C 275.808594 259.234375 275.808594 267.257812 275.808594 275.277344 C 295.9375 281.988281 316.792969 286.582031 337.722656 290.230469 C 342.609375 283.882812 347.203125 275.425781 350.921875 267.621094 C 350.996094 267.476562 351.070312 267.257812 351.144531 267.109375 C 351.507812 266.308594 351.945312 265.507812 352.308594 264.703125 C 354.789062 259.453125 356.757812 254.640625 358.070312 251.285156 C 358.214844 250.921875 358.363281 250.628906 358.433594 250.339844 C 358.652344 249.828125 358.871094 249.316406 359.019531 248.878906 C 359.675781 247.203125 360.039062 246.253906 360.039062 246.253906 C 342.246094 250.777344 320.878906 252.015625 304.105469 252.089844 Z M 304.105469 252.089844 " fill-opacity="1" fill-rule="nonzero"/><path fill="#ffffff" d="M 266.328125 272.871094 C 268.371094 249.828125 265.378906 225.398438 253.273438 205.269531 C 242.628906 187.039062 224.105469 174.347656 203.976562 168.734375 C 220.53125 162.824219 238.25 166.542969 254.585938 171.140625 C 224.175781 152.980469 184.941406 150.429688 153 166.253906 C 161.09375 155.53125 173.347656 149.40625 185.015625 143.425781 C 161.898438 148.3125 139.652344 158.597656 120.984375 173.179688 C 101.074219 188.714844 87.65625 212.925781 87.585938 238.449219 C 94.804688 220.21875 115.152344 214.386719 131.703125 207.96875 C 137.027344 206 138.414062 200.164062 138.414062 195.058594 C 152.78125 181.128906 177.210938 180.183594 192.378906 193.164062 C 198.289062 202.207031 194.714844 213.800781 189.902344 222.554688 C 179.617188 240.859375 162.261719 253.839844 144.394531 264.195312 C 113.109375 281.914062 78.03125 291.542969 42.878906 297.960938 C 59.070312 319.328125 80.4375 336.757812 104.355469 348.714844 C 108.367188 350.757812 112.453125 352.65625 116.609375 354.332031 C 164.8125 374.679688 206.601562 367.96875 206.601562 367.96875 C 215.570312 359.800781 223.957031 350.976562 230.667969 340.839844 C 248.167969 315.316406 255.828125 283.738281 253.566406 253.035156 C 253.492188 246.546875 252.835938 242.171875 252.109375 239.324219 C 251.234375 235.898438 250.210938 234.660156 249.773438 234.222656 C 249.699219 234.074219 249.628906 234.074219 249.628906 234.074219 C 250.066406 234.003906 251.015625 233.855469 251.453125 233.785156 C 259.328125 245.453125 263.703125 259.089844 266.328125 272.871094 Z M 266.328125 272.871094 " fill-opacity="1" fill-rule="nonzero"/><g clip-path="url(#50ffee1912)"><path fill="#000000" d="M -46.855469 19.648438 C -88.289062 19.648438 -121.855469 -14.148438 -121.855469 -55.351562 C -121.855469 -96.558594 -88.289062 -130.351562 -46.855469 -130.351562 C -5.421875 -130.351562 28.144531 -96.789062 28.144531 -55.351562 C 28.144531 -13.917969 -5.652344 19.648438 -46.855469 19.648438 Z M -46.855469 -125.722656 C -85.746094 -125.722656 -117.226562 -94.242188 -117.226562 -55.351562 C -117.226562 -16.464844 -85.746094 15.015625 -46.855469 15.015625 C -7.964844 15.015625 23.515625 -16.464844 23.515625 -55.351562 C 23.515625 -94.242188 -8.199219 -125.722656 -46.855469 -125.722656 Z M -46.855469 -125.722656 " fill-opacity="1" fill-rule="nonzero"/></g></svg>